<svg xmlns="http://www.w3.org/2000/svg" width="191.719" height="34.406" viewBox="0 0 191.719 34.406">
  <defs>
    <style>
      .cls-1 {
        fill: #40bcc8;
      }

      .cls-1, .cls-2 {
        fill-rule: evenodd;
      }

      .cls-2 {
        fill: #28305f;
        stroke: #28305f;
        stroke-width: 1.568px;
      }
    </style>
  </defs>
  <path class="cls-1" d="M3.939,25.793l0.019,0.019,4.275,4.235a21.419,21.419,0,0,0,10.939,5.809q1.14,0.222,2.3.332H21.43a22,22,0,0,0,4.115,0h0l0.19-.019,0.1-.011,0.141-.015,0.159-.019,0.1-.012,0.219-.029,0.044-.006a21.51,21.51,0,0,0,11.34-5.2l0,0c0.068-.061.136-0.121,0.2-0.183l0.025-.023,0.181-.167,0.04-.037,0.17-.162,0.044-.041,0.209-.2,6.757-6.7L44.6,22.464a2.934,2.934,0,0,0-1.475-.851l-0.006.006a3.664,3.664,0,0,0-.8-0.081H39.929a3.042,3.042,0,0,0-1.662.426l-3.845,3.83a15.644,15.644,0,0,1-21.9,0l-3.845-3.83H8.662l-0.019-.018H8.625l-0.019-.019-0.019-.019H8.569L8.55,21.89H8.532l-0.019-.018H8.494l-0.019-.019L8.363,21.8l-0.037-.018H8.307l-0.075-.037H8.214L8.2,21.724H8.177L8.158,21.7H8.121L8.1,21.687H8.046V21.668H7.99V21.65H7.953l-0.037-.018H7.859l-0.018-.019H7.766V21.594H7.691l-0.037-.019H7.542l-0.019-.018H7.355V21.538H4.63a2.989,2.989,0,0,0-2.277.926l-0.878.888ZM43.069,12.46l-0.019-.019L38.762,8.167A21.446,21.446,0,0,0,27.79,2.305a22.941,22.941,0,0,0-2.3-.335h0.039a21.989,21.989,0,0,0-4.128,0h0l-0.19.019L21.1,2l-0.141.016-0.159.02-0.1.012-0.22.029-0.044.005A21.522,21.522,0,0,0,9.065,7.338l0,0-0.2.184-0.025.023C8.771,7.6,8.71,7.66,8.65,7.717l-0.04.037C8.553,7.809,8.5,7.863,8.439,7.918l-0.044.043c-0.07.068-.14,0.137-0.21,0.206L1.407,14.925l0.88,0.9a2.944,2.944,0,0,0,1.479.859l0.006-.006a3.662,3.662,0,0,0,.8.08h2.4a3.042,3.042,0,0,0,1.667-.429l3.857-3.864a15.627,15.627,0,0,1,21.964,0l3.857,3.864h0.019l0.019,0.018h0.019l0.019,0.019,0.019,0.019h0.019L38.444,16.4h0.018l0.019,0.018H38.5l0.019,0.019,0.112,0.056,0.037,0.018h0.019l0.075,0.038h0.019L38.8,16.567h0.019l0.019,0.019h0.037L38.893,16.6h0.056v0.018h0.056v0.019h0.038l0.037,0.019h0.057l0.018,0.018H39.23V16.7h0.075l0.037,0.019h0.112l0.019,0.019h0.168v0.019h2.734a2.987,2.987,0,0,0,2.284-.933l0.881-.9Z" transform="translate(-1.406 -1.875)"/>
  <path id="Ptrica" class="cls-2" d="M24.016,14.344A4.859,4.859,0,1,1,19.156,19.2,4.859,4.859,0,0,1,24.016,14.344Zm25.159-9.08v4.919H63.856a3.667,3.667,0,0,1,2.949,1.1,3.949,3.949,0,0,1,.941,2.647,4.511,4.511,0,0,1-.23,1.438,3.684,3.684,0,0,1-.69,1.23,3.328,3.328,0,0,1-1.213.876,4.42,4.42,0,0,1-1.8.333H53.65a4.663,4.663,0,0,0-3.388,1.041,4.693,4.693,0,0,0-1.046,3.419V33.4h4.935V23.231a0.627,0.627,0,0,1,.711-0.709h8.783a10.083,10.083,0,0,0,4.2-.791,8.177,8.177,0,0,0,2.823-2.043,7.673,7.673,0,0,0,1.568-2.835,10.865,10.865,0,0,0,.481-3.168,9.943,9.943,0,0,0-.523-3.21,7.114,7.114,0,0,0-1.631-2.689,8.014,8.014,0,0,0-2.823-1.834,11,11,0,0,0-4.1-.688H49.175Zm26.266,0v4.919h8.24V33.4h4.977V10.184H96.9V5.264H75.441Zm25.294,0v4.919H116.21a3.724,3.724,0,0,1,2.991,1.1,3.894,3.894,0,0,1,.941,2.606,4.706,4.706,0,0,1-.23,1.459,3.661,3.661,0,0,1-.69,1.25,3.325,3.325,0,0,1-1.213.876,4.422,4.422,0,0,1-1.8.333h-11a4.664,4.664,0,0,0-3.388,1.041,4.694,4.694,0,0,0-1.045,3.419V33.4h4.935V23.231a0.628,0.628,0,0,1,.711-0.709h7.361L120.225,33.4h5.48l-6.567-11.256a7.962,7.962,0,0,0,2.76-1.334,7.663,7.663,0,0,0,1.841-2.022,8.724,8.724,0,0,0,1.045-2.459,10.687,10.687,0,0,0,.335-2.647,9.922,9.922,0,0,0-.523-3.21,7.106,7.106,0,0,0-1.631-2.689,8.011,8.011,0,0,0-2.823-1.834,11,11,0,0,0-4.1-.688H100.735Zm28.865,0V33.4h4.935V5.264H129.6Zm21.661,0q-6.192,0-9.474,3.481T138.5,19.354q0,7.087,3.283,10.568t9.474,3.481h5.147l2.163-4.919h-7.31q-4.141,0-5.982-2.147t-1.84-6.982q0-4.878,1.861-7.024t5.961-2.147h14.161l2.163-4.919H151.261Zm23.879,5.5a1.45,1.45,0,0,1,1.422-.959,1.376,1.376,0,0,1,1.38.959L186.516,33.4H192L182.459,8.391a5.129,5.129,0,0,0-2.2-2.814,7.384,7.384,0,0,0-3.659-.813,7.483,7.483,0,0,0-3.7.813,5.311,5.311,0,0,0-2.238,2.814L160.752,33.4h5.437Z" transform="translate(-1.406 -1.875)"/>
</svg>
