<svg xmlns="http://www.w3.org/2000/svg" width="191.719" height="34.406" viewBox="0 0 191.719 34.406">
  <defs>
    <style>
      .cls-1 {
        fill: #40bcc8;
      }

      .cls-1, .cls-2 {
        fill-rule: evenodd;
      }

      .cls-2 {
        fill: #fff;
        stroke: #fff;
        stroke-width: 1.568px;
      }
    </style>
  </defs>
  <path class="cls-1" d="M2.939,24.793l0.019,0.019,4.275,4.235a21.417,21.417,0,0,0,10.939,5.808,23.168,23.168,0,0,0,2.3.332H20.43a22.027,22.027,0,0,0,4.115,0h0l0.19-.019,0.1-.011,0.141-.016,0.159-.019,0.1-.012,0.219-.029,0.044-.006a21.51,21.51,0,0,0,11.34-5.2l0,0c0.068-.061.136-0.121,0.2-0.183l0.025-.023,0.181-.167,0.04-.037,0.17-.162,0.044-.042c0.07-.068.14-0.135,0.209-0.2l6.757-6.7L43.6,21.464a2.935,2.935,0,0,0-1.475-.851l-0.006.006a3.639,3.639,0,0,0-.8-0.081H38.929a3.045,3.045,0,0,0-1.662.425l-3.845,3.83a15.643,15.643,0,0,1-21.9,0l-3.845-3.83H7.662l-0.019-.018H7.625l-0.019-.019-0.019-.019H7.569L7.55,20.89H7.532l-0.019-.018H7.494l-0.019-.019L7.363,20.8l-0.037-.018H7.307l-0.075-.037H7.214L7.2,20.724H7.177l-0.019-.019H7.121L7.1,20.687H7.046V20.668H6.99V20.65H6.953l-0.037-.018H6.859l-0.018-.019H6.766V20.594H6.691l-0.037-.019H6.542l-0.019-.018H6.355V20.538H3.63a2.987,2.987,0,0,0-2.277.926l-0.878.887ZM42.069,11.461l-0.019-.019L37.762,7.166A21.445,21.445,0,0,0,26.79,1.305a22.818,22.818,0,0,0-2.3-.335h0.038a21.988,21.988,0,0,0-4.128,0h0l-0.19.019L20.1,1l-0.141.016L19.8,1.039l-0.1.012-0.22.029-0.044.006A21.518,21.518,0,0,0,8.065,6.338l0,0-0.2.184-0.025.023C7.771,6.6,7.71,6.66,7.65,6.718l-0.04.037q-0.086.08-.171,0.163l-0.044.042-0.21.206L0.407,13.925l0.88,0.9a2.937,2.937,0,0,0,1.479.859l0.006-.005a3.662,3.662,0,0,0,.8.081h2.4a3.046,3.046,0,0,0,1.667-.429l3.857-3.864a15.626,15.626,0,0,1,21.963,0l3.857,3.864h0.019l0.019,0.018h0.019l0.019,0.019,0.019,0.019h0.019l0.019,0.02h0.018l0.019,0.018H37.5l0.019,0.019,0.112,0.056,0.037,0.018h0.019l0.075,0.038h0.019L37.8,15.567h0.019l0.019,0.019h0.037L37.893,15.6h0.056v0.018h0.056v0.019h0.037l0.037,0.019h0.057l0.018,0.018H38.23V15.7h0.075l0.037,0.019h0.112l0.019,0.019h0.168v0.019h2.734a2.986,2.986,0,0,0,2.284-.934l0.881-.9Z" transform="translate(-0.406 -0.875)"/>
  <path id="Ptrica" class="cls-2" d="M23.016,13.344A4.859,4.859,0,1,1,18.156,18.2,4.859,4.859,0,0,1,23.016,13.344ZM48.175,4.265V9.183H62.856a3.666,3.666,0,0,1,2.949,1.1,3.948,3.948,0,0,1,.941,2.647,4.516,4.516,0,0,1-.23,1.438,3.7,3.7,0,0,1-.69,1.23,3.326,3.326,0,0,1-1.213.876,4.422,4.422,0,0,1-1.8.334H52.65a4.661,4.661,0,0,0-3.388,1.041,4.692,4.692,0,0,0-1.046,3.419V32.4h4.935V22.231a0.627,0.627,0,0,1,.711-0.709h8.783a10.081,10.081,0,0,0,4.2-.791,8.175,8.175,0,0,0,2.823-2.043,7.667,7.667,0,0,0,1.568-2.835,10.863,10.863,0,0,0,.481-3.168,9.94,9.94,0,0,0-.523-3.21,7.116,7.116,0,0,0-1.631-2.69,8.012,8.012,0,0,0-2.823-1.833,10.988,10.988,0,0,0-4.1-.688H48.175Zm26.266,0V9.183h8.24V32.4h4.977V9.183H95.9V4.265H74.441Zm25.294,0V9.183H115.21a3.724,3.724,0,0,1,2.991,1.1,3.893,3.893,0,0,1,.941,2.606,4.708,4.708,0,0,1-.23,1.459,3.665,3.665,0,0,1-.69,1.251,3.325,3.325,0,0,1-1.213.876,4.424,4.424,0,0,1-1.8.334h-11a4.662,4.662,0,0,0-3.388,1.041,4.693,4.693,0,0,0-1.045,3.419V32.4h4.935V22.231a0.628,0.628,0,0,1,.711-0.709h7.361L119.225,32.4h5.48l-6.567-11.256a7.961,7.961,0,0,0,2.76-1.334,7.671,7.671,0,0,0,1.841-2.022,8.726,8.726,0,0,0,1.045-2.459,10.681,10.681,0,0,0,.335-2.647,9.919,9.919,0,0,0-.523-3.21,7.107,7.107,0,0,0-1.631-2.69,8.01,8.01,0,0,0-2.823-1.833,10.992,10.992,0,0,0-4.1-.688H99.735Zm28.865,0V32.4h4.935V4.265H128.6Zm21.661,0q-6.191,0-9.474,3.481T137.5,18.355q0,7.087,3.283,10.567t9.474,3.482h5.147l2.163-4.919h-7.31q-4.141,0-5.982-2.147t-1.84-6.982q0-4.878,1.861-7.024t5.961-2.147h14.161l2.163-4.919H150.261Zm23.879,5.5a1.45,1.45,0,0,1,1.422-.959,1.376,1.376,0,0,1,1.38.959L185.516,32.4H191L181.459,7.391a5.131,5.131,0,0,0-2.2-2.814,7.385,7.385,0,0,0-3.659-.813,7.483,7.483,0,0,0-3.7.813,5.313,5.313,0,0,0-2.238,2.814L159.752,32.4h5.437Z" transform="translate(-0.406 -0.875)"/>
</svg>
